<mxfile host="Electron" agent="Mozilla/5.0 (Windows NT 10.0; Win64; x64) AppleWebKit/537.36 (KHTML, like Gecko) draw.io/26.1.1 Chrome/132.0.6834.210 Electron/34.3.3 Safari/537.36" version="26.1.1">
  <diagram name="Page-1" id="lcmHhi02jM_fzCjZ7xYP">
    <mxGraphModel dx="1185" dy="684" grid="1" gridSize="10" guides="1" tooltips="1" connect="1" arrows="1" fold="1" page="1" pageScale="1" pageWidth="827" pageHeight="583" math="0" shadow="0">
      <root>
        <mxCell id="0" />
        <mxCell id="1" parent="0" />
        <mxCell id="wLFBD-ljAaelf2eN7JmU-1" value="Club" style="rounded=1;whiteSpace=wrap;html=1;" vertex="1" parent="1">
          <mxGeometry x="310" y="70" width="120" height="60" as="geometry" />
        </mxCell>
        <mxCell id="wLFBD-ljAaelf2eN7JmU-6" style="rounded=0;orthogonalLoop=1;jettySize=auto;html=1;entryX=0.75;entryY=1;entryDx=0;entryDy=0;exitX=0.5;exitY=0;exitDx=0;exitDy=0;" edge="1" parent="1" source="wLFBD-ljAaelf2eN7JmU-9" target="wLFBD-ljAaelf2eN7JmU-1">
          <mxGeometry relative="1" as="geometry">
            <mxPoint x="335" y="136.9230769230769" as="sourcePoint" />
          </mxGeometry>
        </mxCell>
        <mxCell id="wLFBD-ljAaelf2eN7JmU-7" style="rounded=0;orthogonalLoop=1;jettySize=auto;html=1;entryX=0.316;entryY=1.029;entryDx=0;entryDy=0;exitX=0.5;exitY=0;exitDx=0;exitDy=0;entryPerimeter=0;" edge="1" parent="1" source="wLFBD-ljAaelf2eN7JmU-10" target="wLFBD-ljAaelf2eN7JmU-1">
          <mxGeometry relative="1" as="geometry">
            <mxPoint x="414" y="318.77165354330714" as="sourcePoint" />
          </mxGeometry>
        </mxCell>
        <mxCell id="wLFBD-ljAaelf2eN7JmU-13" style="rounded=0;orthogonalLoop=1;jettySize=auto;html=1;entryX=1;entryY=0.75;entryDx=0;entryDy=0;" edge="1" parent="1" source="wLFBD-ljAaelf2eN7JmU-9" target="wLFBD-ljAaelf2eN7JmU-10">
          <mxGeometry relative="1" as="geometry" />
        </mxCell>
        <mxCell id="wLFBD-ljAaelf2eN7JmU-9" value="User" style="rounded=1;whiteSpace=wrap;html=1;" vertex="1" parent="1">
          <mxGeometry x="440" y="262" width="120" height="60" as="geometry" />
        </mxCell>
        <mxCell id="wLFBD-ljAaelf2eN7JmU-10" value="Tank" style="rounded=1;whiteSpace=wrap;html=1;glass=0;shadow=0;" vertex="1" parent="1">
          <mxGeometry x="140" y="210" width="120" height="60" as="geometry" />
        </mxCell>
        <mxCell id="wLFBD-ljAaelf2eN7JmU-12" style="rounded=0;orthogonalLoop=1;jettySize=auto;html=1;entryX=0.5;entryY=1;entryDx=0;entryDy=0;" edge="1" parent="1" source="wLFBD-ljAaelf2eN7JmU-11" target="wLFBD-ljAaelf2eN7JmU-9">
          <mxGeometry relative="1" as="geometry" />
        </mxCell>
        <mxCell id="wLFBD-ljAaelf2eN7JmU-14" style="rounded=0;orthogonalLoop=1;jettySize=auto;html=1;" edge="1" parent="1" source="wLFBD-ljAaelf2eN7JmU-11" target="wLFBD-ljAaelf2eN7JmU-10">
          <mxGeometry relative="1" as="geometry" />
        </mxCell>
        <mxCell id="wLFBD-ljAaelf2eN7JmU-15" style="rounded=0;orthogonalLoop=1;jettySize=auto;html=1;entryX=0.5;entryY=1;entryDx=0;entryDy=0;" edge="1" parent="1" source="wLFBD-ljAaelf2eN7JmU-11" target="wLFBD-ljAaelf2eN7JmU-1">
          <mxGeometry relative="1" as="geometry" />
        </mxCell>
        <mxCell id="wLFBD-ljAaelf2eN7JmU-11" value="Role" style="rounded=1;whiteSpace=wrap;html=1;" vertex="1" parent="1">
          <mxGeometry x="270" y="390" width="120" height="60" as="geometry" />
        </mxCell>
      </root>
    </mxGraphModel>
  </diagram>
</mxfile>
